<?xml version="1.0" encoding="utf-8"?>
<!-- Generator: Adobe Illustrator 26.0.0, SVG Export Plug-In . SVG Version: 6.00 Build 0)  -->
<svg version="1.1" id="Layer_1" xmlns="http://www.w3.org/2000/svg" xmlns:xlink="http://www.w3.org/1999/xlink" x="0px" y="0px"
	 viewBox="0 0 50 30" style="enable-background:new 0 0 50 30;" xml:space="preserve">
<style type="text/css">
	.st0{fill:#9553C8;}
	.st1{fill:#2C4755;}
</style>
<g>
	<g>
		<path class="st0" d="M32.5,0.2c8.1,0,14.7,6.6,14.7,14.7l0,0c0,8.1-6.6,14.7-14.7,14.7l0,0c-8.1,0-14.7-6.6-14.7-14.7l0,0
			C17.8,6.8,24.4,0.2,32.5,0.2L32.5,0.2z M32.5,5.1c-5.4,0-9.8,4.4-9.8,9.8l0,0c0,5.4,4.4,9.8,9.8,9.8l0,0c5.4,0,9.8-4.4,9.8-9.8
			l0,0C42.3,9.5,37.9,5.1,32.5,5.1L32.5,5.1z"/>
	</g>
	<g>
		<polygon class="st1" points="2.8,0.9 7.7,0.9 7.7,29.8 2.8,29.8 		"/>
	</g>
</g>
</svg>
